<mxfile host="Electron" agent="Mozilla/5.0 (Windows NT 10.0; Win64; x64) AppleWebKit/537.36 (KHTML, like Gecko) draw.io/27.0.9 Chrome/134.0.6998.205 Electron/35.4.0 Safari/537.36" version="27.0.9">
  <diagram name="Page-1" id="fDENvGbbniez3z6zjXme">
    <mxGraphModel dx="1892" dy="626" grid="1" gridSize="10" guides="1" tooltips="1" connect="1" arrows="1" fold="1" page="1" pageScale="1" pageWidth="850" pageHeight="1100" math="0" shadow="0">
      <root>
        <mxCell id="0" />
        <mxCell id="1" parent="0" />
        <mxCell id="bCUqXBeM5nXGrRunBU-u-1" value="BANK" style="rounded=0;whiteSpace=wrap;html=1;" vertex="1" parent="1">
          <mxGeometry x="10" y="350" width="100" height="60" as="geometry" />
        </mxCell>
        <mxCell id="bCUqXBeM5nXGrRunBU-u-2" value="NAME" style="ellipse;whiteSpace=wrap;html=1;" vertex="1" parent="1">
          <mxGeometry x="-60" y="460" width="80" height="60" as="geometry" />
        </mxCell>
        <mxCell id="bCUqXBeM5nXGrRunBU-u-3" style="edgeStyle=orthogonalEdgeStyle;rounded=0;orthogonalLoop=1;jettySize=auto;html=1;exitX=0.5;exitY=1;exitDx=0;exitDy=0;" edge="1" parent="1" source="bCUqXBeM5nXGrRunBU-u-2" target="bCUqXBeM5nXGrRunBU-u-2">
          <mxGeometry relative="1" as="geometry" />
        </mxCell>
        <mxCell id="bCUqXBeM5nXGrRunBU-u-4" value="ADDRESS" style="ellipse;whiteSpace=wrap;html=1;" vertex="1" parent="1">
          <mxGeometry x="40" y="460" width="70" height="60" as="geometry" />
        </mxCell>
        <mxCell id="bCUqXBeM5nXGrRunBU-u-5" value="" style="endArrow=none;html=1;rounded=0;entryX=0.25;entryY=1;entryDx=0;entryDy=0;" edge="1" parent="1" source="bCUqXBeM5nXGrRunBU-u-2" target="bCUqXBeM5nXGrRunBU-u-1">
          <mxGeometry width="50" height="50" relative="1" as="geometry">
            <mxPoint x="390" y="650" as="sourcePoint" />
            <mxPoint x="440" y="600" as="targetPoint" />
          </mxGeometry>
        </mxCell>
        <mxCell id="bCUqXBeM5nXGrRunBU-u-6" value="" style="endArrow=none;html=1;rounded=0;entryX=0.25;entryY=1;entryDx=0;entryDy=0;exitX=0.309;exitY=0.107;exitDx=0;exitDy=0;exitPerimeter=0;" edge="1" parent="1" source="bCUqXBeM5nXGrRunBU-u-4" target="bCUqXBeM5nXGrRunBU-u-1">
          <mxGeometry width="50" height="50" relative="1" as="geometry">
            <mxPoint x="390" y="650" as="sourcePoint" />
            <mxPoint x="440" y="600" as="targetPoint" />
          </mxGeometry>
        </mxCell>
        <mxCell id="bCUqXBeM5nXGrRunBU-u-7" value="" style="rhombus;whiteSpace=wrap;html=1;" vertex="1" parent="1">
          <mxGeometry x="240" y="320" width="190" height="150" as="geometry" />
        </mxCell>
        <mxCell id="bCUqXBeM5nXGrRunBU-u-8" value="BRANCHES" style="rhombus;whiteSpace=wrap;html=1;" vertex="1" parent="1">
          <mxGeometry x="265" y="340" width="140" height="110" as="geometry" />
        </mxCell>
        <mxCell id="bCUqXBeM5nXGrRunBU-u-10" value="" style="endArrow=none;html=1;rounded=0;exitX=0;exitY=0.5;exitDx=0;exitDy=0;entryX=1;entryY=0.75;entryDx=0;entryDy=0;" edge="1" parent="1" source="bCUqXBeM5nXGrRunBU-u-7" target="bCUqXBeM5nXGrRunBU-u-1">
          <mxGeometry width="50" height="50" relative="1" as="geometry">
            <mxPoint x="390" y="650" as="sourcePoint" />
            <mxPoint x="120" y="390" as="targetPoint" />
          </mxGeometry>
        </mxCell>
        <mxCell id="bCUqXBeM5nXGrRunBU-u-11" value="" style="rounded=0;whiteSpace=wrap;html=1;" vertex="1" parent="1">
          <mxGeometry x="590" y="355" width="180" height="80" as="geometry" />
        </mxCell>
        <mxCell id="bCUqXBeM5nXGrRunBU-u-12" value="BANK-BRANCH" style="rounded=0;whiteSpace=wrap;html=1;" vertex="1" parent="1">
          <mxGeometry x="610" y="375" width="140" height="40" as="geometry" />
        </mxCell>
        <mxCell id="bCUqXBeM5nXGrRunBU-u-14" style="edgeStyle=orthogonalEdgeStyle;rounded=0;orthogonalLoop=1;jettySize=auto;html=1;exitX=0.5;exitY=1;exitDx=0;exitDy=0;" edge="1" parent="1" source="bCUqXBeM5nXGrRunBU-u-11" target="bCUqXBeM5nXGrRunBU-u-11">
          <mxGeometry relative="1" as="geometry" />
        </mxCell>
        <mxCell id="bCUqXBeM5nXGrRunBU-u-15" value="" style="endArrow=none;html=1;rounded=0;entryX=0;entryY=0.5;entryDx=0;entryDy=0;exitX=1;exitY=0.5;exitDx=0;exitDy=0;" edge="1" parent="1" source="bCUqXBeM5nXGrRunBU-u-7" target="bCUqXBeM5nXGrRunBU-u-11">
          <mxGeometry width="50" height="50" relative="1" as="geometry">
            <mxPoint x="390" y="650" as="sourcePoint" />
            <mxPoint x="440" y="600" as="targetPoint" />
          </mxGeometry>
        </mxCell>
        <mxCell id="bCUqXBeM5nXGrRunBU-u-16" value="ADDRESS" style="ellipse;whiteSpace=wrap;html=1;" vertex="1" parent="1">
          <mxGeometry x="600" y="230" width="80" height="60" as="geometry" />
        </mxCell>
        <mxCell id="bCUqXBeM5nXGrRunBU-u-17" value="BRANCH NO" style="ellipse;whiteSpace=wrap;html=1;" vertex="1" parent="1">
          <mxGeometry x="730" y="240" width="90" height="50" as="geometry" />
        </mxCell>
        <mxCell id="bCUqXBeM5nXGrRunBU-u-18" style="edgeStyle=orthogonalEdgeStyle;rounded=0;orthogonalLoop=1;jettySize=auto;html=1;exitX=0.5;exitY=1;exitDx=0;exitDy=0;" edge="1" parent="1" source="bCUqXBeM5nXGrRunBU-u-16" target="bCUqXBeM5nXGrRunBU-u-16">
          <mxGeometry relative="1" as="geometry" />
        </mxCell>
        <mxCell id="bCUqXBeM5nXGrRunBU-u-20" value="" style="endArrow=none;html=1;rounded=0;exitX=0.5;exitY=0;exitDx=0;exitDy=0;" edge="1" parent="1" source="bCUqXBeM5nXGrRunBU-u-11">
          <mxGeometry width="50" height="50" relative="1" as="geometry">
            <mxPoint x="570" y="450" as="sourcePoint" />
            <mxPoint x="640" y="290" as="targetPoint" />
          </mxGeometry>
        </mxCell>
        <mxCell id="bCUqXBeM5nXGrRunBU-u-21" value="" style="endArrow=none;html=1;rounded=0;exitX=0.5;exitY=0;exitDx=0;exitDy=0;" edge="1" parent="1" source="bCUqXBeM5nXGrRunBU-u-11">
          <mxGeometry width="50" height="50" relative="1" as="geometry">
            <mxPoint x="570" y="450" as="sourcePoint" />
            <mxPoint x="770" y="290" as="targetPoint" />
          </mxGeometry>
        </mxCell>
        <mxCell id="bCUqXBeM5nXGrRunBU-u-22" value="ACCTS" style="rhombus;whiteSpace=wrap;html=1;" vertex="1" parent="1">
          <mxGeometry x="315" y="530" width="90" height="80" as="geometry" />
        </mxCell>
        <mxCell id="bCUqXBeM5nXGrRunBU-u-23" value="" style="endArrow=none;html=1;rounded=0;exitX=0.5;exitY=0;exitDx=0;exitDy=0;entryX=0;entryY=1;entryDx=0;entryDy=0;" edge="1" parent="1" source="bCUqXBeM5nXGrRunBU-u-22" target="bCUqXBeM5nXGrRunBU-u-11">
          <mxGeometry width="50" height="50" relative="1" as="geometry">
            <mxPoint x="390" y="550" as="sourcePoint" />
            <mxPoint x="440" y="500" as="targetPoint" />
          </mxGeometry>
        </mxCell>
        <mxCell id="bCUqXBeM5nXGrRunBU-u-24" value="ACCOUNT" style="rounded=0;whiteSpace=wrap;html=1;" vertex="1" parent="1">
          <mxGeometry x="40" y="650" width="120" height="60" as="geometry" />
        </mxCell>
        <mxCell id="bCUqXBeM5nXGrRunBU-u-25" value="" style="endArrow=none;html=1;rounded=0;exitX=0.413;exitY=-0.033;exitDx=0;exitDy=0;exitPerimeter=0;entryX=0;entryY=0.5;entryDx=0;entryDy=0;" edge="1" parent="1" source="bCUqXBeM5nXGrRunBU-u-24" target="bCUqXBeM5nXGrRunBU-u-22">
          <mxGeometry width="50" height="50" relative="1" as="geometry">
            <mxPoint x="390" y="550" as="sourcePoint" />
            <mxPoint x="440" y="500" as="targetPoint" />
          </mxGeometry>
        </mxCell>
        <mxCell id="bCUqXBeM5nXGrRunBU-u-26" value="" style="endArrow=none;html=1;rounded=0;exitX=0.25;exitY=0;exitDx=0;exitDy=0;entryX=0.144;entryY=0.345;entryDx=0;entryDy=0;entryPerimeter=0;" edge="1" parent="1" source="bCUqXBeM5nXGrRunBU-u-24" target="bCUqXBeM5nXGrRunBU-u-22">
          <mxGeometry width="50" height="50" relative="1" as="geometry">
            <mxPoint x="390" y="550" as="sourcePoint" />
            <mxPoint x="440" y="500" as="targetPoint" />
          </mxGeometry>
        </mxCell>
        <mxCell id="bCUqXBeM5nXGrRunBU-u-27" value="A-C" style="rhombus;whiteSpace=wrap;html=1;" vertex="1" parent="1">
          <mxGeometry x="60" y="790" width="80" height="80" as="geometry" />
        </mxCell>
        <mxCell id="bCUqXBeM5nXGrRunBU-u-28" value="" style="endArrow=none;html=1;rounded=0;exitX=0.625;exitY=0.125;exitDx=0;exitDy=0;exitPerimeter=0;entryX=0.583;entryY=1;entryDx=0;entryDy=0;entryPerimeter=0;" edge="1" parent="1" source="bCUqXBeM5nXGrRunBU-u-27" target="bCUqXBeM5nXGrRunBU-u-24">
          <mxGeometry width="50" height="50" relative="1" as="geometry">
            <mxPoint x="390" y="750" as="sourcePoint" />
            <mxPoint x="110" y="720" as="targetPoint" />
          </mxGeometry>
        </mxCell>
        <mxCell id="bCUqXBeM5nXGrRunBU-u-29" value="" style="endArrow=none;html=1;rounded=0;entryX=0.407;entryY=1.02;entryDx=0;entryDy=0;entryPerimeter=0;exitX=0.36;exitY=0.175;exitDx=0;exitDy=0;exitPerimeter=0;" edge="1" parent="1" source="bCUqXBeM5nXGrRunBU-u-27" target="bCUqXBeM5nXGrRunBU-u-24">
          <mxGeometry width="50" height="50" relative="1" as="geometry">
            <mxPoint x="90" y="790" as="sourcePoint" />
            <mxPoint x="440" y="700" as="targetPoint" />
          </mxGeometry>
        </mxCell>
        <mxCell id="bCUqXBeM5nXGrRunBU-u-30" value="BALANCE" style="ellipse;whiteSpace=wrap;html=1;" vertex="1" parent="1">
          <mxGeometry x="230" y="680" width="60" height="60" as="geometry" />
        </mxCell>
        <mxCell id="bCUqXBeM5nXGrRunBU-u-31" value="TYPE" style="ellipse;whiteSpace=wrap;html=1;" vertex="1" parent="1">
          <mxGeometry x="220" y="760" width="60" height="50" as="geometry" />
        </mxCell>
        <mxCell id="bCUqXBeM5nXGrRunBU-u-32" value="" style="endArrow=none;html=1;rounded=0;exitX=0.5;exitY=1;exitDx=0;exitDy=0;" edge="1" parent="1" source="bCUqXBeM5nXGrRunBU-u-27">
          <mxGeometry width="50" height="50" relative="1" as="geometry">
            <mxPoint x="120" y="880" as="sourcePoint" />
            <mxPoint x="100" y="940" as="targetPoint" />
          </mxGeometry>
        </mxCell>
        <mxCell id="bCUqXBeM5nXGrRunBU-u-33" value="CUSTOMER" style="rounded=0;whiteSpace=wrap;html=1;" vertex="1" parent="1">
          <mxGeometry x="40" y="940" width="120" height="60" as="geometry" />
        </mxCell>
        <mxCell id="bCUqXBeM5nXGrRunBU-u-34" value="SSN" style="ellipse;whiteSpace=wrap;html=1;" vertex="1" parent="1">
          <mxGeometry x="-60" y="1010" width="70" height="50" as="geometry" />
        </mxCell>
        <mxCell id="bCUqXBeM5nXGrRunBU-u-35" value="PHONE" style="ellipse;whiteSpace=wrap;html=1;" vertex="1" parent="1">
          <mxGeometry x="30" y="1030" width="80" height="50" as="geometry" />
        </mxCell>
        <mxCell id="bCUqXBeM5nXGrRunBU-u-36" value="ADDRESS" style="ellipse;whiteSpace=wrap;html=1;" vertex="1" parent="1">
          <mxGeometry x="150" y="1040" width="80" height="50" as="geometry" />
        </mxCell>
        <mxCell id="bCUqXBeM5nXGrRunBU-u-37" value="" style="endArrow=none;html=1;rounded=0;exitX=0.663;exitY=0.072;exitDx=0;exitDy=0;exitPerimeter=0;" edge="1" parent="1" source="bCUqXBeM5nXGrRunBU-u-34">
          <mxGeometry width="50" height="50" relative="1" as="geometry">
            <mxPoint x="390" y="950" as="sourcePoint" />
            <mxPoint x="80" y="1000" as="targetPoint" />
          </mxGeometry>
        </mxCell>
        <mxCell id="bCUqXBeM5nXGrRunBU-u-38" value="" style="endArrow=none;html=1;rounded=0;entryX=0.665;entryY=0.104;entryDx=0;entryDy=0;entryPerimeter=0;" edge="1" parent="1" target="bCUqXBeM5nXGrRunBU-u-35">
          <mxGeometry width="50" height="50" relative="1" as="geometry">
            <mxPoint x="80" y="1000" as="sourcePoint" />
            <mxPoint x="440" y="900" as="targetPoint" />
          </mxGeometry>
        </mxCell>
        <mxCell id="bCUqXBeM5nXGrRunBU-u-39" value="" style="endArrow=none;html=1;rounded=0;entryX=0.305;entryY=0.032;entryDx=0;entryDy=0;entryPerimeter=0;" edge="1" parent="1" target="bCUqXBeM5nXGrRunBU-u-36">
          <mxGeometry width="50" height="50" relative="1" as="geometry">
            <mxPoint x="80" y="1000" as="sourcePoint" />
            <mxPoint x="440" y="900" as="targetPoint" />
          </mxGeometry>
        </mxCell>
        <mxCell id="bCUqXBeM5nXGrRunBU-u-40" value="" style="endArrow=none;html=1;rounded=0;exitX=1;exitY=0.5;exitDx=0;exitDy=0;entryX=0.02;entryY=0.253;entryDx=0;entryDy=0;entryPerimeter=0;" edge="1" parent="1" source="bCUqXBeM5nXGrRunBU-u-24" target="bCUqXBeM5nXGrRunBU-u-30">
          <mxGeometry width="50" height="50" relative="1" as="geometry">
            <mxPoint x="390" y="650" as="sourcePoint" />
            <mxPoint x="440" y="600" as="targetPoint" />
          </mxGeometry>
        </mxCell>
        <mxCell id="bCUqXBeM5nXGrRunBU-u-41" value="" style="endArrow=none;html=1;rounded=0;entryX=0;entryY=0;entryDx=0;entryDy=0;" edge="1" parent="1" target="bCUqXBeM5nXGrRunBU-u-31">
          <mxGeometry width="50" height="50" relative="1" as="geometry">
            <mxPoint x="160" y="680" as="sourcePoint" />
            <mxPoint x="440" y="600" as="targetPoint" />
          </mxGeometry>
        </mxCell>
        <mxCell id="bCUqXBeM5nXGrRunBU-u-42" value="L-C" style="rhombus;whiteSpace=wrap;html=1;" vertex="1" parent="1">
          <mxGeometry x="400" y="840" width="80" height="80" as="geometry" />
        </mxCell>
        <mxCell id="bCUqXBeM5nXGrRunBU-u-43" value="" style="endArrow=none;html=1;rounded=0;entryX=0;entryY=0.5;entryDx=0;entryDy=0;" edge="1" parent="1" source="bCUqXBeM5nXGrRunBU-u-33" target="bCUqXBeM5nXGrRunBU-u-42">
          <mxGeometry width="50" height="50" relative="1" as="geometry">
            <mxPoint x="390" y="950" as="sourcePoint" />
            <mxPoint x="440" y="900" as="targetPoint" />
          </mxGeometry>
        </mxCell>
        <mxCell id="bCUqXBeM5nXGrRunBU-u-45" value="LOAN" style="rounded=0;whiteSpace=wrap;html=1;" vertex="1" parent="1">
          <mxGeometry x="600" y="720" width="120" height="60" as="geometry" />
        </mxCell>
        <mxCell id="bCUqXBeM5nXGrRunBU-u-46" value="" style="endArrow=none;html=1;rounded=0;entryX=-0.017;entryY=0.88;entryDx=0;entryDy=0;entryPerimeter=0;exitX=0.5;exitY=0;exitDx=0;exitDy=0;" edge="1" parent="1" source="bCUqXBeM5nXGrRunBU-u-42" target="bCUqXBeM5nXGrRunBU-u-45">
          <mxGeometry width="50" height="50" relative="1" as="geometry">
            <mxPoint x="390" y="750" as="sourcePoint" />
            <mxPoint x="440" y="700" as="targetPoint" />
          </mxGeometry>
        </mxCell>
        <mxCell id="bCUqXBeM5nXGrRunBU-u-47" value="" style="endArrow=none;html=1;rounded=0;exitX=0.6;exitY=0.12;exitDx=0;exitDy=0;exitPerimeter=0;entryX=0.087;entryY=0.973;entryDx=0;entryDy=0;entryPerimeter=0;" edge="1" parent="1" source="bCUqXBeM5nXGrRunBU-u-42" target="bCUqXBeM5nXGrRunBU-u-45">
          <mxGeometry width="50" height="50" relative="1" as="geometry">
            <mxPoint x="390" y="750" as="sourcePoint" />
            <mxPoint x="570" y="722" as="targetPoint" />
          </mxGeometry>
        </mxCell>
        <mxCell id="bCUqXBeM5nXGrRunBU-u-48" value="LOAN" style="rhombus;whiteSpace=wrap;html=1;" vertex="1" parent="1">
          <mxGeometry x="640" y="520" width="80" height="80" as="geometry" />
        </mxCell>
        <mxCell id="bCUqXBeM5nXGrRunBU-u-49" value="" style="endArrow=none;html=1;rounded=0;exitX=0.5;exitY=0;exitDx=0;exitDy=0;" edge="1" parent="1" source="bCUqXBeM5nXGrRunBU-u-48">
          <mxGeometry width="50" height="50" relative="1" as="geometry">
            <mxPoint x="390" y="550" as="sourcePoint" />
            <mxPoint x="680" y="435" as="targetPoint" />
          </mxGeometry>
        </mxCell>
        <mxCell id="bCUqXBeM5nXGrRunBU-u-50" value="" style="endArrow=none;html=1;rounded=0;entryX=0.5;entryY=1;entryDx=0;entryDy=0;" edge="1" parent="1" target="bCUqXBeM5nXGrRunBU-u-48">
          <mxGeometry width="50" height="50" relative="1" as="geometry">
            <mxPoint x="680" y="718" as="sourcePoint" />
            <mxPoint x="440" y="600" as="targetPoint" />
          </mxGeometry>
        </mxCell>
        <mxCell id="bCUqXBeM5nXGrRunBU-u-51" value="LOAN-NO" style="ellipse;whiteSpace=wrap;html=1;" vertex="1" parent="1">
          <mxGeometry x="520" y="640" width="60" height="50" as="geometry" />
        </mxCell>
        <mxCell id="bCUqXBeM5nXGrRunBU-u-52" value="AMOUNT" style="ellipse;whiteSpace=wrap;html=1;" vertex="1" parent="1">
          <mxGeometry x="750" y="620" width="70" height="50" as="geometry" />
        </mxCell>
        <mxCell id="bCUqXBeM5nXGrRunBU-u-53" value="TYPE" style="ellipse;whiteSpace=wrap;html=1;" vertex="1" parent="1">
          <mxGeometry x="755" y="830" width="65" height="50" as="geometry" />
        </mxCell>
        <mxCell id="bCUqXBeM5nXGrRunBU-u-54" value="" style="endArrow=none;html=1;rounded=0;entryX=0.291;entryY=0.912;entryDx=0;entryDy=0;entryPerimeter=0;exitX=1;exitY=0;exitDx=0;exitDy=0;" edge="1" parent="1" source="bCUqXBeM5nXGrRunBU-u-45" target="bCUqXBeM5nXGrRunBU-u-52">
          <mxGeometry width="50" height="50" relative="1" as="geometry">
            <mxPoint x="390" y="650" as="sourcePoint" />
            <mxPoint x="440" y="600" as="targetPoint" />
          </mxGeometry>
        </mxCell>
        <mxCell id="bCUqXBeM5nXGrRunBU-u-55" value="" style="endArrow=none;html=1;rounded=0;entryX=1;entryY=1;entryDx=0;entryDy=0;exitX=0;exitY=0;exitDx=0;exitDy=0;" edge="1" parent="1" source="bCUqXBeM5nXGrRunBU-u-45" target="bCUqXBeM5nXGrRunBU-u-51">
          <mxGeometry width="50" height="50" relative="1" as="geometry">
            <mxPoint x="390" y="650" as="sourcePoint" />
            <mxPoint x="440" y="600" as="targetPoint" />
          </mxGeometry>
        </mxCell>
        <mxCell id="bCUqXBeM5nXGrRunBU-u-56" value="" style="endArrow=none;html=1;rounded=0;entryX=0.311;entryY=0.104;entryDx=0;entryDy=0;entryPerimeter=0;exitX=1;exitY=1;exitDx=0;exitDy=0;" edge="1" parent="1" source="bCUqXBeM5nXGrRunBU-u-45" target="bCUqXBeM5nXGrRunBU-u-53">
          <mxGeometry width="50" height="50" relative="1" as="geometry">
            <mxPoint x="390" y="850" as="sourcePoint" />
            <mxPoint x="440" y="800" as="targetPoint" />
          </mxGeometry>
        </mxCell>
        <mxCell id="bCUqXBeM5nXGrRunBU-u-57" value="1" style="text;html=1;align=center;verticalAlign=middle;resizable=0;points=[];autosize=1;strokeColor=none;fillColor=none;" vertex="1" parent="1">
          <mxGeometry x="195" y="348" width="30" height="30" as="geometry" />
        </mxCell>
        <mxCell id="bCUqXBeM5nXGrRunBU-u-58" value="N" style="text;html=1;align=center;verticalAlign=middle;resizable=0;points=[];autosize=1;strokeColor=none;fillColor=none;" vertex="1" parent="1">
          <mxGeometry x="415" y="348" width="30" height="30" as="geometry" />
        </mxCell>
        <mxCell id="bCUqXBeM5nXGrRunBU-u-59" value="1" style="text;html=1;align=center;verticalAlign=middle;resizable=0;points=[];autosize=1;strokeColor=none;fillColor=none;" vertex="1" parent="1">
          <mxGeometry x="685" y="488" width="30" height="30" as="geometry" />
        </mxCell>
        <mxCell id="bCUqXBeM5nXGrRunBU-u-60" value="N" style="text;html=1;align=center;verticalAlign=middle;resizable=0;points=[];autosize=1;strokeColor=none;fillColor=none;" vertex="1" parent="1">
          <mxGeometry x="675" y="598" width="30" height="30" as="geometry" />
        </mxCell>
        <mxCell id="bCUqXBeM5nXGrRunBU-u-61" value="M" style="text;html=1;align=center;verticalAlign=middle;resizable=0;points=[];autosize=1;strokeColor=none;fillColor=none;" vertex="1" parent="1">
          <mxGeometry x="475" y="848" width="30" height="30" as="geometry" />
        </mxCell>
        <mxCell id="bCUqXBeM5nXGrRunBU-u-62" value="N&lt;div&gt;&lt;br&gt;&lt;/div&gt;" style="text;html=1;align=center;verticalAlign=middle;resizable=0;points=[];autosize=1;strokeColor=none;fillColor=none;" vertex="1" parent="1">
          <mxGeometry x="375" y="883" width="30" height="40" as="geometry" />
        </mxCell>
        <mxCell id="bCUqXBeM5nXGrRunBU-u-63" value="N" style="text;html=1;align=center;verticalAlign=middle;resizable=0;points=[];autosize=1;strokeColor=none;fillColor=none;" vertex="1" parent="1">
          <mxGeometry x="105" y="898" width="30" height="30" as="geometry" />
        </mxCell>
        <mxCell id="bCUqXBeM5nXGrRunBU-u-64" value="M&lt;div&gt;&lt;br&gt;&lt;/div&gt;" style="text;html=1;align=center;verticalAlign=middle;resizable=0;points=[];autosize=1;strokeColor=none;fillColor=none;" vertex="1" parent="1">
          <mxGeometry x="125" y="733" width="30" height="40" as="geometry" />
        </mxCell>
      </root>
    </mxGraphModel>
  </diagram>
</mxfile>
